<svg width="22" height="22" viewBox="0 0 22 22" fill="none" xmlns="http://www.w3.org/2000/svg">
<path d="M18.3333 19.25C18.3333 17.9707 18.3333 17.3311 18.1754 16.8106C17.8199 15.6387 16.9029 14.7217 15.731 14.3662C15.2105 14.2083 14.5709 14.2083 13.2916 14.2083H8.7083C7.42903 14.2083 6.78939 14.2083 6.26891 14.3662C5.09704 14.7217 4.18 15.6387 3.82451 16.8106C3.66663 17.3311 3.66663 17.9707 3.66663 19.25M15.125 6.875C15.125 9.15317 13.2781 11 11 11C8.72178 11 6.87496 9.15317 6.87496 6.875C6.87496 4.59683 8.72178 2.75 11 2.75C13.2781 2.75 15.125 4.59683 15.125 6.875Z" stroke="#929292" stroke-width="1.5" stroke-linecap="round" stroke-linejoin="round"/>
</svg>
