<svg width="24" height="24" viewBox="0 0 24 24" fill="none" xmlns="http://www.w3.org/2000/svg">
<rect width="24" height="24" rx="7" fill="#FFE4F2"/>
<path d="M17.3025 9.07164C16.8067 8.5233 15.9783 8.24914 14.7767 8.24914H14.6367V8.2258C14.6367 7.2458 14.6367 6.03247 12.4433 6.03247H11.5567C9.36333 6.03247 9.36333 7.25164 9.36333 8.2258V8.25497H9.22333C8.01583 8.25497 7.19333 8.52914 6.6975 9.07747C6.12 9.71914 6.1375 10.5825 6.19583 11.1716L6.20166 11.2125L6.23745 11.5883C6.25172 11.738 6.33246 11.8735 6.45874 11.9553C6.59634 12.0444 6.77478 12.1576 6.89 12.2216C6.97166 12.2741 7.05916 12.3208 7.14666 12.3675C8.14416 12.9158 9.24083 13.2833 10.355 13.4641C10.4075 14.0125 10.6467 14.6541 11.9242 14.6541C13.2017 14.6541 13.4525 14.0183 13.4933 13.4525C14.6833 13.26 15.8325 12.8458 16.8708 12.2391C16.9058 12.2216 16.9292 12.2041 16.9583 12.1866C17.166 12.0693 17.3806 11.9275 17.5805 11.7856C17.6904 11.7076 17.7601 11.5855 17.775 11.4516L17.8042 11.1775C17.81 11.1425 17.81 11.1133 17.8158 11.0725C17.8625 10.4833 17.8508 9.6783 17.3025 9.07164ZM12.6358 13.0675C12.6358 13.6858 12.6358 13.7791 11.9183 13.7791C11.2008 13.7791 11.2008 13.6683 11.2008 13.0733V12.3383H12.6358V13.0675ZM10.1975 8.24914V8.2258C10.1975 7.23414 10.1975 6.86664 11.5567 6.86664H12.4433C13.8025 6.86664 13.8025 7.23997 13.8025 8.2258V8.25497H10.1975V8.24914Z" fill="#F478B8"/>
<path d="M16.838 13.1706C17.1932 13.0057 17.601 13.2866 17.5656 13.6766L17.39 15.6108C17.2675 16.7775 16.7892 17.9675 14.2225 17.9675H9.7775C7.21083 17.9675 6.7325 16.7775 6.61 15.6167L6.44429 13.7938C6.40924 13.4084 6.8075 13.1278 7.16156 13.2842C7.81222 13.5715 8.72608 13.9543 9.36844 14.138C9.53174 14.1847 9.66362 14.3035 9.74437 14.4529C10.1182 15.1447 10.8659 15.5117 11.9242 15.5117C12.9721 15.5117 13.7282 15.1304 14.1038 14.4356C14.1846 14.2861 14.3168 14.1674 14.4801 14.1202C15.1665 13.922 16.1498 13.4901 16.838 13.1706Z" fill="#F478B8"/>
</svg>
